<?xml version="1.0" encoding="UTF-8"?>
<svg id="Layer_2" data-name="Layer 2" xmlns="http://www.w3.org/2000/svg" version="1.1" viewBox="0 0 70.6 81">
  <defs>
    <style>
      .cls-1 {
        fill: #000;
        stroke-width: 0px;
      }
    </style>
  </defs>
  <g id="Layer_1-2" data-name="Layer 1-2">
    <g>
      <path class="cls-1" d="M52.2,51.6s0,0,0,0c0,0,0,0,0,0l.6-1s0,0,0,0"/>
      <path class="cls-1" d="M18.3,51.6s0,0,0,0"/>
      <path class="cls-1" d="M70.6,35.3c0,16.1-10.8,29.7-25.5,33.9l5.9-10.2c7.6-5.1,12.7-13.8,12.7-23.6s-5.5-19.4-13.8-24.4v36.2c-1.1.6-2.3,1-3.6,1-2.1,0-4-.9-5.3-2.3-.3-.4-.7-.8-1.1-1.1V11l-4.5,7.8-4.5-7.8v35.9c-.4.3-.8.7-1.1,1.1-1.3,1.4-3.2,2.3-5.4,2.3s-2.5-.3-3.6-1V10.9c-8.3,5-13.8,14-13.8,24.4s5,18.5,12.7,23.6l5.9,10.3C10.8,64.9,0,51.4,0,35.3S15.8,0,35.3,0s35.3,15.8,35.3,35.3h0Z"/>
      <path class="cls-1" d="M39.8,73.1l-4.5,7.8-4.5-7.8c1.5.2,3,.3,4.5.3s3,0,4.5-.3Z"/>
      <path class="cls-1" d="M52.9,50.5s0,0,0,0"/>
      <path class="cls-1" d="M52.2,51.6s0,0,0,0c0,0,0,0,0,0"/>
      <path class="cls-1" d="M18.3,51.6s0,0,0,0"/>
      <path class="cls-1" d="M52.2,51.6l-10.6,18.4c-2,.4-4.2.6-6.3.6s-4.3-.2-6.4-.6l-8.2-14.3-2.4-4.1c.6.9,1.4,1.6,2.4,2.1,1.1.6,2.3,1,3.6,1,2.1,0,4-.9,5.4-2.3.3-.4.7-.8,1.1-1.1,1.2-1,2.8-1.6,4.5-1.6s4.3,1,5.6,2.7c1.3,1.4,3.2,2.3,5.3,2.3s4.6-1.2,6-3h0Z"/>
    </g>
  </g>
</svg>